<svg id="Layer_1" data-name="Layer 1" xmlns="http://www.w3.org/2000/svg" viewBox="0 0 85.04 85.04"><defs><style>.cls-1{fill:none;stroke:#fff;}</style></defs><title>basket_white</title><rect class="cls-1" x="55.2" y="46.41" width="3.89" height="13.93" rx="1.71" transform="translate(2.97 -3.02) rotate(3.1)"/><rect class="cls-1" x="48.3" y="46.28" width="3.89" height="13.93" rx="1.71" transform="translate(2.46 -2.22) rotate(2.6)"/><rect class="cls-1" x="41.75" y="46.31" width="3.89" height="13.93" rx="1.71"/><rect class="cls-1" x="34.92" y="46.38" width="3.89" height="13.93" rx="1.71" transform="translate(-2.82 2.06) rotate(-3.08)"/><rect class="cls-1" x="28" y="46.4" width="3.89" height="13.93" rx="1.71" transform="translate(-4.58 2.84) rotate(-5.05)"/><path class="cls-1" d="M67.18,42.85C66,52.22,65.1,59,64.91,60.84a4.89,4.89,0,0,1-.87,2.5,5.71,5.71,0,0,1-1.24,1.17,5.55,5.55,0,0,1-1.06.56l-.68.06-35.84.13a5.16,5.16,0,0,1-2.65-1.77,4.92,4.92,0,0,1-.9-2.57c-.22-2.39-1.07-9-2.2-17.9Z"/><line class="cls-1" x1="31.6" y1="35.75" x2="54.77" y2="35.69"/><path class="cls-1" d="M67.45,42.65a5.35,5.35,0,0,0,1.78-1,5.65,5.65,0,0,0,1.28-1.56,3.67,3.67,0,0,0,.6-2.06,2.41,2.41,0,0,0-.6-1.59,2.31,2.31,0,0,0-1.36-.61,108.48,108.48,0,0,0-11.53-.06"/><path class="cls-1" d="M19.41,42.89a3.45,3.45,0,0,1-.44-.24,5.77,5.77,0,0,1-1.37-1.21C16.32,40,16.43,40.28,16.23,40a3.26,3.26,0,0,1-.68-2.31,2.38,2.38,0,0,1,.63-1.26,2.81,2.81,0,0,1,1.17-.65c1.09-.3,5.45-.32,11.34,0"/><path class="cls-1" d="M27.4,40.09,41.79,24.66a.86.86,0,0,0,.16-.24.77.77,0,0,0-.12-.76.81.81,0,0,0-.63-.21,1.26,1.26,0,0,0-.46.1c-.59.28-12.47,13.27-14.45,15.44"/><path class="cls-1" d="M26.21,39.49c.12-.47.16-.59.16-.59s-.27.77,0,1.05a.75.75,0,0,0,.41.14,1.49,1.49,0,0,0,.6,0"/><path class="cls-1" d="M44.66,23.75a.69.69,0,0,1,.34-.32,1.45,1.45,0,0,1,.48-.05c.31,0,.4,0,.47.07a.36.36,0,0,1,.13.19c.2.51,14.07,14.2,14.4,15.37a.88.88,0,0,1,0,.5A1,1,0,0,1,60,40a.75.75,0,0,1-.57.19.68.68,0,0,1-.24-.15L44.6,24.53A1.5,1.5,0,0,1,44.66,23.75Z"/><path class="cls-1" d="M39.15,24.73a2.17,2.17,0,0,1-.09-.6,1.92,1.92,0,0,1,.21-.91,1.89,1.89,0,0,1,.81-.77,2.24,2.24,0,0,1,1.15-.27,2,2,0,0,1,1.16.38,1.88,1.88,0,0,1,.64.82,2,2,0,0,1,.19,1.1,2,2,0,0,1-.37.93,2.09,2.09,0,0,1-.85.64,2.07,2.07,0,0,1-1.26.1"/><path class="cls-1" d="M41.42,25.43a1,1,0,0,0,1-.64,1.39,1.39,0,0,0,.06-.81,1.15,1.15,0,0,0-.29-.7,1.2,1.2,0,0,0-.7-.31,1.6,1.6,0,0,0-.91,0,1.11,1.11,0,0,0-.62.46.91.91,0,0,0-.14.55"/><path class="cls-1" d="M47.52,24.75a2.08,2.08,0,0,0,0-1.16,1.94,1.94,0,0,0-.35-.72,2.06,2.06,0,0,0-.91-.69,2.09,2.09,0,0,0-1.18-.08,2,2,0,0,0-1.11.56A2.11,2.11,0,0,0,43.53,24a2.05,2.05,0,0,0,.17,1.37,1.89,1.89,0,0,0,1.13.8,2.46,2.46,0,0,0,1,.11"/><path class="cls-1" d="M27.87,36.67a3.34,3.34,0,0,0-1.05-.05,2.93,2.93,0,0,0-.92.24,2.73,2.73,0,0,0-1.16,1,2.65,2.65,0,0,0-.46,1.7,2.62,2.62,0,0,0,.7,1.5,2.83,2.83,0,0,0,1.6.9,2.79,2.79,0,0,0,2-.44,2.58,2.58,0,0,0,.88-.89A2.69,2.69,0,0,0,29.76,39a2.81,2.81,0,0,0-.2-.68"/><path class="cls-1" d="M59,36.67a4.22,4.22,0,0,1,.9,0,3.36,3.36,0,0,1,1.31.44,2.73,2.73,0,0,1,1.11,1.67,2.71,2.71,0,0,1-1.86,3.06,2.78,2.78,0,0,1-1.8-.15,2.65,2.65,0,0,1-1.35-.92,2.43,2.43,0,0,1-.46-1.55,2.56,2.56,0,0,1,.24-1"/><path class="cls-1" d="M46.83,24.11a1,1,0,0,0,0-.51,1.08,1.08,0,0,0-.47-.53,1.51,1.51,0,0,0-.79-.31,1.36,1.36,0,0,0-.93.28,1.48,1.48,0,0,0-.47.7,1.45,1.45,0,0,0,0,.84s.28.72.81.78a.64.64,0,0,0,.14,0"/><line class="cls-1" x1="27.17" y1="40.18" x2="27.64" y2="40"/></svg>
