<svg id="Layer_1" data-name="Layer 1" xmlns="http://www.w3.org/2000/svg" viewBox="0 0 85.04 85.04"><defs><style>.cls-1{fill:none;stroke:#0e7dc7;}</style></defs><title>kogaMand_blue</title><path class="cls-1" d="M33.32,41h0L16.39,31.35l-1.81-.93a5.77,5.77,0,0,1-3.18-3.55,4.67,4.67,0,0,1,0-3.13A5.86,5.86,0,0,1,14,21"/><path class="cls-1" d="M33.28,41a.82.82,0,0,1,.24.17.37.37,0,0,1,0,.14.37.37,0,0,1,0,.15,1.2,1.2,0,0,1-.07.18l-.07.16-.17.46L27.53,52.94,21.82,64.07"/><path class="cls-1" d="M21.62,65.85c0-.26,0-.49,0-.66a4.36,4.36,0,0,1,.06-.69,2.43,2.43,0,0,1,.09-.33"/><path class="cls-1" d="M21.62,66a6,6,0,0,0,.28,1.25,3.11,3.11,0,0,0,.27.62,3.32,3.32,0,0,0,.45.59,4.22,4.22,0,0,0,.76.58,4.34,4.34,0,0,0,.76.35,4.17,4.17,0,0,0,1.27.27,2.51,2.51,0,0,0,.63-.05,2.45,2.45,0,0,0,.71-.28,4.38,4.38,0,0,0,.78-.52,6,6,0,0,0,1.25-1.44"/><polyline class="cls-1" points="28.91 67.18 30.6 64.16 34.89 55.83 38.58 48.85 42.24 42.21"/><path class="cls-1" d="M28.21,29l11.47,6.45.56.4c.65.46,1,.69,1.13.83s.33.4.81,1a3.44,3.44,0,0,1,.58.84,3,3,0,0,1,.21,1.1,2.47,2.47,0,0,1,0,.92,4.62,4.62,0,0,1-.31.68c-.11.21-.38.93-.44,1"/><polyline class="cls-1" points="28.52 28.76 47.68 28.89 44.96 45.73"/><path class="cls-1" d="M45,45.68c-.07,1-.19,2.41-.19,3a4.65,4.65,0,0,0,.09,1.16,3.62,3.62,0,0,0,.58,1.43,4.23,4.23,0,0,0,.53.58,11.24,11.24,0,0,0,1,.85l1.07.8"/><path class="cls-1" d="M48,53.5c5.13,4,10.66,8.15,15.79,12.11a4.3,4.3,0,0,0,1.34.31,3.75,3.75,0,0,0,1.08,0,3.87,3.87,0,0,0,1.16-.45,4.56,4.56,0,0,0,1-.85,4.43,4.43,0,0,0,.94-1.16A3.35,3.35,0,0,0,69.61,62a3.7,3.7,0,0,0-.22-1.43,3.61,3.61,0,0,0-.72-1.16,7.71,7.71,0,0,0-1.74-1.3"/><polyline class="cls-1" points="66.93 58.06 52.95 46.94 55.19 32.2 56.12 25.81"/><path class="cls-1" d="M56.08,26.14a8,8,0,0,0,0-2.51,3.85,3.85,0,0,0-.58-1.17,3.67,3.67,0,0,0-1.83-1.38,8.36,8.36,0,0,0-2.41-.17"/><line class="cls-1" x1="51.24" y1="20.91" x2="13.9" y2="21.05"/><polygon class="cls-1" points="19.94 61.77 25.27 51.67 21.83 37.47 12.4 31.81 19.94 61.77"/><circle class="cls-1" cx="66.47" cy="29.34" r="8.53"/></svg>
