<svg id="Layer_1" data-name="Layer 1" xmlns="http://www.w3.org/2000/svg" viewBox="0 0 85.04 85.04"><defs><style>.cls-1{fill:none;stroke:#1d1d1b;}</style></defs><title>kunden</title><path class="cls-1" d="M48.56,37.84a2.8,2.8,0,0,0-.47-3.35,2.86,2.86,0,0,0-2.48-.6L43.93,34c-1.77.08-1.51.11-2.42.14-1.55,0-1.78,0-2.28.2A2.93,2.93,0,0,0,38,35.43a3.59,3.59,0,0,0,0,3.29"/><path class="cls-1" d="M25,46l.06,13.31"/><path class="cls-1" d="M34.66,52.07c.81.93,3.35,3.6,6.47,3.36a9.61,9.61,0,0,0,3.14-1A25.6,25.6,0,0,0,48.9,51.6C58.37,45,51.6,50,55.44,47.31c1.59-1.1,2.46-1.74,3.68-1.61a3.22,3.22,0,0,1,2.66,1.81,2.88,2.88,0,0,1-.07,2.21,4.55,4.55,0,0,1-2.52,2c-.23.11-1.67,1.28-4.57,3.62-7.25,5.88-8.68,9-11.85,8.73-1.12-.09-1.11-.49-4.36-2.08-5.36-2.63-6.78-2.91-7.77-3.09a16.57,16.57,0,0,0-5.31-.07"/><path class="cls-1" d="M24.82,46.5a18.54,18.54,0,0,1,5.86-1.27,11.29,11.29,0,0,1,3.9.27c1.65.44,2.42,1.13,4.85,2.81,2.67,1.85,4.29,1.78,4.63,3a2.69,2.69,0,0,1-.43,2"/><path class="cls-1" d="M44.6,50.19A14.92,14.92,0,0,0,50.77,47c.58-.53,1.62-1.57,2.82-1.41a2.63,2.63,0,0,1,1.61,1"/><circle class="cls-1" cx="43.31" cy="32.76" r="10.85"/><circle class="cls-1" cx="43.21" cy="29.88" r="3.23"/></svg>
