<svg id="Layer_1" data-name="Layer 1" xmlns="http://www.w3.org/2000/svg" viewBox="0 0 85.04 85.04"><defs><style>.cls-1{fill:none;stroke:#1d1d1b;}</style></defs><title>service</title><path class="cls-1" d="M37.8,55.12A2.76,2.76,0,0,1,35,55a3,3,0,0,1-1.17-2.68,2.9,2.9,0,0,1,.34-1.11,14.74,14.74,0,0,1,7.13-6.36,2.85,2.85,0,0,1,2.18-.22,3,3,0,0,1,1.56,2.45,3.31,3.31,0,0,1-.23,1.46"/><path class="cls-1" d="M33.18,52a5.65,5.65,0,0,1-1.89-.9,3.3,3.3,0,0,1-1.5-1.85,3.08,3.08,0,0,1,.6-2.29c.25-.4.65-.92,2.94-2.39a15.85,15.85,0,0,1,2.89-1.65,19.06,19.06,0,0,1,3.44-.45c.82-.07,1.26-.09,1.5.2.4.49-.08,1.45-.15,1.6"/><path class="cls-1" d="M53.57,40.41a8.94,8.94,0,0,1-4,2,14.06,14.06,0,0,1-3.2.15c-1.17,0-2.81,0-4.78-.15"/><path class="cls-1" d="M33.73,43.6a4.5,4.5,0,0,1-3,.45,3.91,3.91,0,0,1-2.2-1.25,3.42,3.42,0,0,1-.79-3.09c.3-.91,1.08-1.33,2.84-2.19a72.19,72.19,0,0,1,6.83-3.14,21.94,21.94,0,0,1,4.94-1.45c2.52-.29,2.89.35,4.38-.2,2.58-.95,3.8-3.72,4.14-4.49.75-1.69.26-2.95.8-3.14s1.68,1.54,3,3.24c4,5.28,7.77,5.73,7.53,7.93-.2,1.83-2.79,1.68-4,4.58-.91,2.26.55,2.63-.24,5.51,0,0-.7,2.57-4.31,7.19l-.33.41-.2.26s-6.77,8.53-8.2,8.45a.46.46,0,0,1-.13,0l-.08,0c-.08,0-2.92-1.69-2.56-3.33.1-.45.33-.41,2.16-2.4.29-.32.37-.42.57-.63,2.47-2.72,4-3.35,4.22-4.64s-1.18-3-2.64-3.35c-2.84-.76-5.66,3.39-7.42,6-.91,1.33-1.25,2.18-1,2.87.45,1.06,2.37,1.67,3.24,1.94l.39.12"/><path class="cls-1" d="M49.64,51.89a3.14,3.14,0,0,1,1.84.91,3.17,3.17,0,0,1,.85,1.73"/><path class="cls-1" d="M53.21,55.49a10.9,10.9,0,0,1,2.56,2.82,5.6,5.6,0,0,1,1,2.44,4,4,0,0,1-.3,2.35,4.53,4.53,0,0,1-2.43,2,5.65,5.65,0,0,1-3,.52,5.4,5.4,0,0,1-2.13-.79,6.58,6.58,0,0,1-2.39-2.56"/><path class="cls-1" d="M52.08,59.58a2,2,0,0,0-1.91.78A1.9,1.9,0,0,0,50,61.84a1.87,1.87,0,0,0,2.83,1,2,2,0,0,0,.82-1.17,1.75,1.75,0,0,0-.17-1.35A1.85,1.85,0,0,0,52.08,59.58Z"/><path class="cls-1" d="M30.35,46.27l-4.22-4.6"/><path class="cls-1" d="M26.35,41.23a9.83,9.83,0,0,1-6.87.31,10.39,10.39,0,0,1-4.91-3.83A9,9,0,0,1,13.05,35c-.73-2.09-.76-4.77.08-5.09.41-.15.9.29,1.61.91,1.8,1.59,1.69,2.76,3,3.52a4.3,4.3,0,0,0,2.91.4A5.59,5.59,0,0,0,24,32.67c.58-.78.76-1.68,1.13-3.48.22-1.05.19-1.39,0-1.69-.33-.71-1-.71-2.18-1.39-.83-.49-2.46-1.43-2.47-2.66a2,2,0,0,1,.95-1.6c1-.64,2.25-.18,3.52.3.56.21.68.31,4.18,2.65,0,0,2.4,1.61,2.87,3,.06.2.1.39.1.39.13.66-.08.78,0,1.44s.2.88,0,1.34h0c-.28.55-.22,2.13.22,4.92"/></svg>
