<svg id="Layer_1" data-name="Layer 1" xmlns="http://www.w3.org/2000/svg" viewBox="0 0 85.04 85.04"><defs><style>.cls-1{fill:none;stroke:#1d1d1b;}</style></defs><title>world</title><path class="cls-1" d="M43.15,15a23.21,23.21,0,0,0-8,7.67A27,27,0,0,0,33,27.27a37.31,37.31,0,0,0-2.21,9,55.34,55.34,0,0,0,.14,15.29,38.53,38.53,0,0,0,1.29,6,26.82,26.82,0,0,0,3.87,8.32,23.13,23.13,0,0,0,3.41,3.73"/><path class="cls-1" d="M67.73,24.39a66.14,66.14,0,0,1-7.39,3.12C54.43,29.18,49.45,29,42.77,28.77a47.38,47.38,0,0,1-7.29-.63A50.44,50.44,0,0,1,25.3,24.58"/><path class="cls-1" d="M36.72,56.34a6.27,6.27,0,0,0-.21,1.24.59.59,0,0,0,.14.38c.1.09.21.09.53.08h.61a30.88,30.88,0,0,0,6.39-1.58c2.34-.9,3.56-1.37,5.41-2.26,3.39-1.63,3.2-1.94,6.69-3.64,1.56-.75,2.73-1.24,4.62-2.35a9.14,9.14,0,0,0,3.44-3.15c.8-1.36.59-2,.49-2.26a1.94,1.94,0,0,0-.89-.89,4.84,4.84,0,0,0-3.83,0,14.12,14.12,0,0,0-3,1.58c-1.47.85-1.42.68-4.33,2.16-1.43.73-1.21.65-4.62,2.46-4.09,2.17-4.07,2.1-4.72,2.55a47.29,47.29,0,0,0-4.22,3.44c-.13.12-.63.58-1.32,1.19l-1.14,1c-.85.71-1.52,1.23-1.57,1.28-1.87,1.44-6.79,2.12-8.85,2.35-1.22.15-2.42.23-4.82.4a42.33,42.33,0,0,1-4.52.19,14.26,14.26,0,0,1-5.61-1.18A6.23,6.23,0,0,1,8.4,57a5.86,5.86,0,0,1-.79-3.14,11.14,11.14,0,0,1,1.08-5,18.68,18.68,0,0,1,3-4.72c.93-1.16,5.24-4.46,7.16-6"/><line class="cls-1" x1="18.22" y1="42.77" x2="36.34" y2="42.86"/><polyline class="cls-1" points="46.9 48.73 37.61 38.22 40.73 36.45 55.56 44.28"/><polyline class="cls-1" points="49.59 54.19 52.87 67.9 56.16 66.3 57.82 49.89"/><line class="cls-1" x1="60.97" y1="60.48" x2="67.61" y2="62.21"/><line class="cls-1" x1="68.72" y1="42.9" x2="75.1" y2="42.95"/><polyline class="cls-1" points="38.66 54.66 35.08 49.01 36.6 48 41.41 52.19"/><polyline class="cls-1" points="44.18 56.45 44.44 62.42 43.17 63.6 39.95 57.76"/><line class="cls-1" x1="46.53" y1="66.83" x2="46.48" y2="71.56"/><line class="cls-1" x1="46.1" y1="14.92" x2="46.06" y2="35.25"/><circle class="cls-1" cx="46.68" cy="43.15" r="28.39"/><path class="cls-1" d="M50.14,15a20.83,20.83,0,0,1,4.91,3.23C62.66,25,62.7,35.47,62.64,38.07"/></svg>
